# xmcd
#
# Track frame offsets:
#      150
#      12718
#      27524
#      41179
#      54979
#      70314
#      83284
#      96531
#      111979
#      124489
#      137183
#      150269
#      163939
#      178056
#      190667
#      205831
#      217477
#      232331
#      243433
#      256567
#      268952
#      281272
#      294507
#      308430
#      321154
#      333188
# 
# Disc length: 4604 seconds
#
# Revision: 2
# Processed by: cddbd v1.4PL0 Copyright (c) Steve Scherf et al.
#
# Submitted via: FreeRIP 1.21
#
DISCID=8b11fa1a
DTITLE=Louis Jordan With The Tympani Five - Man Alive- It's The Jumping Ji
DYEAR=1900
DGENRE=blues
TTITLE0=Choo Choo Ch'Boogie
TTITLE1=Somebody Done Changed The Lock On That Door
TTITLE2=Salt Pork, West Virginia
TTITLE3=Open The Door, Richard
TTITLE4=Run, Joe
TTITLE5=Small Town Boy
TTITLE6=The Green Grass Grows All Around
TTITLE7=Early In The Mornin'
TTITLE8=Don't Burn The Candle At Both Ends
TTITLE9=Boogie Woogie Blue Plate
TTITLE10=Beware
TTITLE11=Don't Let The Sun Catch You Crying
TTITLE12=Texas And Pacific
TTITLE13=It's A Low-Down, Dirty Shame
TTITLE14=Why'd You Do It Baby?
TTITLE15=Pettin' And Pokin'
TTITLE16=Daddy-O
TTITLE17=Slender, Tender And Tall
TTITLE18=We Can't Agree
TTITLE19=Is You Is Or Is You Ain't My Baby?
TTITLE20=Flat Face
TTITLE21=My Baby Said 'Yes'
TTITLE22=You're On The Right Track, Baby
TTITLE23=Barnyard Boogie
TTITLE24=How Long Must I Wait For You?
TTITLE25=Stone Cold Dead In De Market
EXTD=
EXTT0=
EXTT1=
EXTT2=
EXTT3=
EXTT4=
EXTT5=
EXTT6=
EXTT7=
EXTT8=
EXTT9=
EXTT10=
EXTT11=
EXTT12=
EXTT13=
EXTT14=
EXTT15=
EXTT16=
EXTT17=
EXTT18=
EXTT19=
EXTT20=
EXTT21=
EXTT22=
EXTT23=
EXTT24=
EXTT25=
PLAYORDER=
